<?xml version="1.0" encoding="utf-8"?>
<!-- Generator: Adobe Illustrator 21.0.2, SVG Export Plug-In . SVG Version: 6.00 Build 0)  -->
<!DOCTYPE svg PUBLIC "-//W3C//DTD SVG 1.1//EN" "http://www.w3.org/Graphics/SVG/1.1/DTD/svg11.dtd">
<svg version="1.1" xmlns="http://www.w3.org/2000/svg" xmlns:xlink="http://www.w3.org/1999/xlink" x="0px" y="0px"
	 viewBox="0 0 204 144" style="enable-background:new 0 0 204 144;" xml:space="preserve">
<style type="text/css">
	.st0{fill:#FFFFFF;}
</style>
<g id="Layer_2">
</g>
<g id="Layer_1">
	<g>
		<path class="st0" d="M117.6,94.8c-0.5,0-1.1,0-1.6,0.1l2.3-3.6c-0.4,0-0.8,0-1.3,0c-10,0-14.5,5.8-14.5,18.8v1.9
			c0,1.6,0.1,3.1,0.2,4.5l3.3-5.2v1.1c0,10.8,4.2,15.1,12.2,15.1c5.3,0,8.5-2,10.2-3.7v-11.3h-8.4v1.5h6.5v9.3
			c-1.5,1.3-4,2.4-8.2,2.4h-0.2c-6.7,0-10.2-3.5-10.2-13.2v-2.4c0-0.7,0-1.4,0.1-2.1l6.6-10.6c0.9-0.2,1.9-0.3,3-0.3h0.2
			c5.8,0,8.4,2.7,8.4,9.6h2.2v-1.1C128.3,98.7,124.8,94.8,117.6,94.8z"/>
		<path class="st0" d="M148.8,110.3c-6.2-0.9-8.4-3.5-8.4-7.1v-0.4c0-3.9,3.4-6,7.8-6h0.4c5.4,0,7.8,2.4,7.8,8.7h1.6v-0.7
			c0-6.1-2.7-10-9.8-10c-5.4,0-9.6,3.1-9.6,8.3v0.4c0,3.7,2.4,7.2,9.4,8.4c6,0.9,8.9,2.6,8.9,6.9v0.1c0,4.5-3.6,6.9-8.4,6.9h-0.4
			c-4.7,0-8.5-2.2-8.5-9.1h-1.6v1c0,6.1,3.8,9.8,10.2,9.8c6.2,0,10.3-3.3,10.3-8.7v-0.1C158.6,114.2,155.9,111.4,148.8,110.3z"/>
		<polygon class="st0" points="204,5.5 204,3.6 184.2,3.6 184.2,35.4 204,35.4 204,33.6 186,33.6 186,19.9 201.5,19.9 201.5,18.3 
			186,18.3 186,5.5 		"/>
		<polygon class="st0" points="53.7,51.3 53.7,49.2 33.8,49.2 33.8,81.2 45.8,81.2 42.2,84.2 53.7,84.2 53.7,81.2 53.7,81.2 
			53.7,79.2 53.7,79.2 53.7,76.2 51.7,76.2 48.1,79.2 35.7,79.2 35.7,65.9 51.3,65.9 51.3,64.2 35.7,64.2 35.7,51.3 		"/>
		<polygon class="st0" points="8.1,112.9 4.5,116.1 4.5,129.9 13.5,129.9 13.5,108.4 10.1,111.3 10.1,97.1 18.4,97.1 18.4,95.1 
			0.2,95.1 0.2,97.1 8.1,97.1 		"/>
		<polygon class="st0" points="22.7,81.2 22.7,49.2 20.7,49.2 20.7,70.5 20.8,79 3.3,49.2 1.1,49.2 1.1,81.2 3.1,81.2 3.1,58.9 
			2.7,51.6 20.3,81.2 		"/>
		<rect x="56.6" y="92" class="st0" width="9.1" height="37.9"/>
		<polygon class="st0" points="0,144 85.6,144 89.8,137.2 0,137.2 		"/>
		<path class="st0" d="M103.4,38.5h9.8l-2.8-11.9l-3.3,2.8l-5.7-25.8h-6.4l-7.4,31.8h1.8l1.8-8.1h13.3l0.9,3.5l-3,2.5L103.4,38.5z
			 M91.8,25.5l4.7-20h3.4l4.2,20H91.8z"/>
		<polygon class="st0" points="87.6,71.4 83.9,49 69.9,60.8 68.2,71.4 67.3,63 64.6,65.3 62.1,49.2 60.1,49.2 62.8,66.8 59.6,69.5 
			61.8,84.2 73.3,84.2 78,56.9 82.5,84.2 94.1,84.2 100,46.3 90.3,46.3 		"/>
		<path class="st0" d="M143.7,0.6h-2.5l-6.1,5.1v8.6l0.2,7.1L130,10.1l-3.2,2.7l-5.4-9.2h-2.2v15.7l-3.2,2.7v16.5h8.4V24.9l-0.2-7.4
			l10.2,21h9.4V0.6z M121.1,17.6v-4.1l-0.4-7.4l4.7,7.9L121.1,17.6z"/>
		<path class="st0" d="M172.9,3.2C170.5,1,166.9,0,162.2,0c-10,0-14.5,5.4-14.5,18.6v1.9c0,7.5,1.5,12.6,4.8,15.6l1.7-2.7
			c2,2.2,5,3.3,8.7,3.3c5.3,0,8.5-2,10.2-3.7V20.4h-8.4v2h6.3v9.5c-1.5,1.3-3.8,2.8-8,2.8H163c-3.4,0-5.9-1-7.6-3.2l2.3-3.7
			c-0.6-1.8-0.7-4.3-0.7-7.4v-1.9c0-6.7,0.4-10.8,5.3-10.8h0.5c2.9,0,3.9,1.8,4.2,4.9l2.7-4.4c1,1.5,1.5,3.6,1.6,6.5h1.8v-0.9
			c0-3.1-0.8-5.6-2.3-7.3L172.9,3.2z"/>
		<polygon class="st0" points="90,105.5 90.2,113 80.2,92 70.7,92 70.7,129.9 79.1,129.9 79.1,116.1 78.9,109.1 89.1,129.9 
			94.3,129.9 98.5,123.2 98.5,92 90,92 		"/>
		<polygon class="st0" points="33.7,114.5 42.8,114.5 42.8,129.9 51.7,129.9 51.7,92 42.8,92 42.8,106.5 33.7,106.5 33.7,92 33,92 
			29.3,95 28.1,96.1 24.8,98.9 24.8,129.9 33.7,129.9 		"/>
		<polygon class="st0" points="38.4,35.4 40.2,35.4 40.2,5.4 49.5,5.4 49.5,3.6 29.3,3.6 29.3,5.4 38.4,5.4 		"/>
		<path class="st0" d="M10.5,36.3c6.2,0,10.3-3.3,10.3-8.7V27c0-4.5-2.7-7.1-9.8-8.2c-6.2-0.9-8.4-3.7-8.4-7.2v-0.4
			c0-3.9,3.4-5.9,7.8-5.9h0.4c5.4,0,7.8,2.6,7.8,8.9h1.6v-0.9c0-6.1-2.7-9.8-9.8-9.8c-5.4,0-9.6,3-9.6,8.2V12c0,3.7,2.4,7.4,9.4,8.5
			c6,0.9,8.9,2.4,8.9,6.7v0.6c0,4.5-3.6,6.9-8.4,6.9h-0.4c-4.7,0-8.5-3.2-8.5-9.1H0.3v0.6C0.3,32.2,4.1,36.3,10.5,36.3z"/>
		<path class="st0" d="M60.6,22h7.1h0.7l5.9,13.4h2.2l-5.9-13.6c3.8-0.7,7.1-3.5,7.1-8.4v-1.2c0-6.9-5.3-8.6-10-8.6h-9v31.8h2V22z
			 M60.6,5.5h7.1c3.3,0,8.2,0.8,8.2,6.8v1.2c0,5.9-4.9,6.9-8.2,6.9h-7.1V5.5z"/>
	</g>
</g>
</svg>
